<?xml version="1.0" encoding="UTF-8"?> <svg xmlns="http://www.w3.org/2000/svg" width="560" height="193" viewBox="0 0 560 193" fill="none"><path d="M116.566 168.278C117.615 166.999 118.578 165.708 119.503 164.368C119.503 164.368 119.503 164.356 119.503 164.332C120.429 162.992 121.33 161.615 122.132 160.178C122.132 160.178 122.095 160.154 122.132 160.154C125.032 155.22 127.241 149.861 128.709 144.209L106.965 174.478L130.227 136.109C130.486 133.989 130.683 131.845 130.733 129.653V129.555C130.77 129.093 130.77 128.605 130.77 128.118V127.168L102.782 171.957L130.77 118.252V109.725L98.4754 169.728L130.77 96.521V87.4828L94.0575 167.803L130.77 67.3235V64.2052C130.77 62.2806 130.671 60.3804 130.498 58.5046L89.5287 166.159L126.278 40.7327C126.056 40.1724 125.834 39.6243 125.599 39.0761C125.241 38.1869 124.809 37.3343 124.378 36.4694L84.9134 164.819L116.381 23.8745C116.319 23.8135 116.282 23.7405 116.221 23.6674C115.53 22.8025 114.789 21.9864 114.049 21.1703L80.1994 163.771L103.831 12.0103C103.004 11.4134 102.14 10.8531 101.277 10.2928L75.399 163.004L89.6274 4.28766C89.2695 4.15367 88.9363 3.98314 88.5785 3.86133C88.0355 3.65425 87.4802 3.48372 86.9495 3.28883L70.4629 162.541L74.4982 0.316702C73.5727 0.182713 72.6472 0.0974467 71.7093 0.0121808L65.3788 162.395L59.0482 0C58.1103 0.0852659 57.1725 0.170532 56.2593 0.304521L60.3069 162.541L43.8203 3.30101C43.265 3.4959 42.6973 3.67861 42.1544 3.89787C41.8088 4.01968 41.4756 4.17803 41.1425 4.31202L55.3708 163.016L29.4932 10.3172C28.6294 10.8775 27.7779 11.45 26.9388 12.0469L50.5581 163.771L16.7087 21.1216C15.956 21.9499 15.2156 22.8025 14.5122 23.6674C14.4628 23.7283 14.4258 23.7892 14.3764 23.8379L45.8564 164.819L6.37992 36.4451C5.96035 37.3221 5.52844 38.1869 5.13355 39.0883C4.89909 39.6243 4.6893 40.1602 4.47952 40.7084L41.2412 166.171L0.259146 58.4802C0.0863819 60.3683 0 62.2928 0 64.2174V67.3235L36.7246 167.815L0 87.4828V96.521L32.2945 169.74L0 109.725V118.252L27.9877 171.969L0 127.18V128.142C0 128.63 0 129.093 0.0246805 129.58V129.677C0.0617013 131.858 0.271486 134.014 0.542972 136.133L23.792 174.491L2.06083 144.221C3.30719 148.996 5.09653 153.552 7.3548 157.839C7.82373 158.668 8.25564 159.484 8.71223 160.312C9.63775 161.896 10.625 163.455 11.7479 164.977C12.2786 165.745 12.8339 166.5 13.4139 167.231C13.9692 167.962 14.5615 168.692 15.1415 169.399C15.7585 170.105 16.3755 170.8 16.9926 171.506C19.4976 174.223 22.2495 176.756 25.1865 179.022C25.9269 179.607 26.7043 180.155 27.4448 180.703C27.5065 180.739 27.5435 180.764 27.5682 180.8C29.049 181.836 30.6039 182.81 32.1711 183.736C34.6145 185.173 37.1566 186.428 39.748 187.524C40.4637 187.829 41.1671 188.133 41.9076 188.377C45.622 189.814 49.5215 190.91 53.5074 191.617C55.3338 191.958 57.1601 192.202 59.0112 192.384C61.109 192.603 63.2192 192.689 65.3541 192.689C83.4202 192.689 99.7464 185.453 111.593 173.796C113.358 172.054 114.999 170.227 116.542 168.303L116.566 168.278Z" fill="black"></path><path d="M200.468 66.9097H217.855C228.603 66.9097 235.452 73.2681 235.452 80.8933C235.452 88.1165 230.01 95.8026 217.386 95.8026H208.526V116.62H200.468V66.9097ZM208.526 69.224V93.5492H213.425C222.421 93.5492 226.789 88.7134 226.789 81.4901C226.789 73.536 221.286 69.224 213.363 69.224H208.526Z" fill="black"></path><path d="M252.458 66.9097H269.314C280.063 66.9097 287.109 72.4763 287.109 80.2355C287.109 86.4721 283.012 91.5028 276.163 93.2325L289.799 116.632H280.593L268.241 94.8282H260.454V116.632H252.458V66.9218V66.9097ZM260.454 69.224V92.4894H267.303C274.756 92.4894 278.656 87.9216 278.656 81.4901C278.656 74.072 273.757 69.224 265.834 69.224H260.466H260.454Z" fill="black"></path><path d="M305.459 66.9097H313.456V116.62H305.459V66.9097Z" fill="black"></path><path d="M329.462 111.917L334.435 105.681C337.989 110.979 343.567 115.157 349.206 115.157C354.377 115.157 358.067 111.771 358.067 106.411C358.067 101.052 354.303 98.1285 345.171 94.5473C335.632 90.7713 331.473 86.5323 331.473 80.2957C331.473 72.2076 338.52 65.9102 348.392 65.9102C353.76 65.9102 359.4 67.3719 363.102 69.6253L358.671 76.0568C354.982 71.5499 350.539 68.5047 345.578 68.5047C340.618 68.5047 337.459 71.757 337.459 75.9228C337.459 80.8317 340.815 83.414 349.947 87.1901C359.412 91.1001 364.311 95.741 364.311 102.173C364.311 111.381 356.722 117.618 346.578 117.618C340.531 117.618 333.349 115.632 329.45 111.917H329.462Z" fill="black"></path><path d="M431.01 116.62H423.013V78.7007L405.021 116.62H402.467L384.475 78.8347V116.62H381.723V66.9097H387.634L406.638 106.619L425.445 66.9097H431.022V116.62H431.01Z" fill="black"></path><path d="M444.052 125.366C450.296 121.261 452.444 117.338 452.444 108.203V66.9097H457.281V105.754C457.281 110.919 456.738 115.036 454.998 118.154C452.777 122.259 448.211 125.451 444.854 126.766L444.052 125.378V125.366Z" fill="black"></path><path d="M479.197 66.9097H506.802V68.9682H484.034V90.638H504.914V92.6965H484.034V114.573H507.468V116.632H479.197V66.9218V66.9097Z" fill="black"></path><path d="M536.837 68.9553H518.5V66.8967H560V68.9553H541.662V116.619H536.825V68.9553H536.837Z" fill="black"></path></svg> 